<svg xmlns="http://www.w3.org/2000/svg" xmlns:xlink="http://www.w3.org/1999/xlink" width="500" zoomAndPan="magnify" viewBox="0 0 375 374.999991" height="500" preserveAspectRatio="xMidYMid meet" version="1.0"><defs><clipPath id="f9a245ab4e"><path d="M 148.15625 140 L 298 140 L 298 217.691406 L 148.15625 217.691406 Z M 148.15625 140 " clip-rule="nonzero"/></clipPath><clipPath id="2ebd9e24da"><path d="M 203 167 L 225 167 L 225 217.691406 L 203 217.691406 Z M 203 167 " clip-rule="nonzero"/></clipPath><clipPath id="75ec5c82a8"><path d="M 203 95.441406 L 225 95.441406 L 225 152 L 203 152 Z M 203 95.441406 " clip-rule="nonzero"/></clipPath><clipPath id="1d5ddd96e0"><path d="M 148.15625 127 L 170 127 L 170 185 L 148.15625 185 Z M 148.15625 127 " clip-rule="nonzero"/></clipPath></defs><g clip-path="url(#f9a245ab4e)"><path fill="#f13223" d="M 148.335938 217.523438 C 148.335938 217.523438 201.636719 151.117188 297.972656 141.597656 C 297.972656 141.597656 215.996094 128.734375 148.335938 193.148438 " fill-opacity="1" fill-rule="nonzero"/></g><path fill="#d9d9d9" d="M 203.597656 172.492188 L 203.597656 177.992188 C 210.058594 174.203125 217.0625 170.5 224.597656 167.035156 L 224.597656 161.539062 C 217.0625 165.003906 210.058594 168.703125 203.597656 172.492188 " fill-opacity="1" fill-rule="nonzero"/><g clip-path="url(#2ebd9e24da)"><path fill="#dbd8d4" d="M 203.597656 177.992188 L 203.597656 217.523438 L 224.597656 204.207031 L 224.597656 167.035156 C 217.0625 170.5 210.058594 174.203125 203.597656 177.992188 " fill-opacity="1" fill-rule="nonzero"/></g><g clip-path="url(#75ec5c82a8)"><path fill="#dbd8d4" d="M 203.597656 111.488281 L 203.597656 151.480469 C 210.804688 148.710938 217.84375 146.511719 224.597656 144.773438 L 224.597656 95.457031 L 203.597656 111.488281 " fill-opacity="1" fill-rule="nonzero"/></g><g clip-path="url(#1d5ddd96e0)"><path fill="#dbd8d4" d="M 148.335938 143.339844 L 148.335938 184.535156 C 155.257812 178.582031 162.292969 173.382812 169.335938 168.84375 L 169.335938 127.3125 L 148.335938 143.339844 " fill-opacity="1" fill-rule="nonzero"/></g></svg>